<svg width="416" height="148" viewBox="0 0 416 148" fill="none" xmlns="http://www.w3.org/2000/svg">
<path d="M19.0896 25.0406C18.1511 23.3176 15.5509 23.8356 15.3444 25.7868L14.8774 30.1988C14.7852 31.0693 14.1377 31.7787 13.2793 31.9498L8.92136 32.818C7.04111 33.1926 6.71433 35.7423 8.43934 36.5789L12.6567 38.6245C13.4151 38.9923 13.8615 39.7962 13.7727 40.6345L13.2799 45.2902C13.0751 47.2249 15.4732 48.2834 16.7646 46.8283L19.6128 43.6192C20.2075 42.9491 21.1753 42.7563 21.9815 43.1473L25.8421 45.0198C27.5925 45.8688 29.4018 43.9721 28.4712 42.2636L26.2317 38.1523C25.8285 37.412 25.9327 36.4984 26.4922 35.868L29.6036 32.3623C30.8762 30.9284 29.5972 28.6987 27.7169 29.0733L23.359 29.9415C22.5006 30.1126 21.6306 29.7055 21.2119 28.9368L19.0896 25.0406Z" fill="white"/>
<path d="M300.177 48.5706C299.23 46.8804 296.673 47.3898 296.446 49.3139L295.507 57.2708C295.405 58.1313 294.761 58.8285 293.911 58.9978L286.054 60.5634C284.153 60.9419 283.848 63.5308 285.608 64.3413L292.885 67.6935C293.672 68.056 294.136 68.884 294.034 69.7445L293.095 77.7015C292.868 79.6256 295.236 80.7162 296.55 79.2931L301.987 73.4079C302.575 72.7714 303.506 72.5859 304.293 72.9485L311.57 76.3006C313.33 77.1112 315.099 75.1964 314.152 73.5063L310.235 66.5169C309.811 65.761 309.922 64.8184 310.51 64.1819L315.947 58.2967C317.262 56.8736 315.987 54.5995 314.087 54.9781L306.229 56.5436C305.38 56.7129 304.518 56.3158 304.094 55.56L300.177 48.5706Z" fill="white"/>
<path d="M394.875 77.9312C394.857 75.9939 392.37 75.2121 391.246 76.7904L386.599 83.3172C386.096 84.023 385.196 84.325 384.37 84.0651L376.726 81.6623C374.878 81.0813 373.366 83.2049 374.52 84.7613L379.291 91.1979C379.807 91.894 379.816 92.8431 379.314 93.5489L374.667 100.076C373.543 101.654 375.095 103.748 376.932 103.132L384.528 100.583C385.35 100.307 386.255 100.592 386.771 101.288L391.542 107.725C392.696 109.281 395.168 108.452 395.149 106.515L395.072 98.5028C395.064 97.6364 395.614 96.8631 396.436 96.5875L404.032 94.0387C405.869 93.4224 405.844 90.8157 403.995 90.2347L396.352 87.8319C395.525 87.572 394.96 86.8095 394.952 85.9431L394.875 77.9312Z" fill="white"/>
<path d="M374.204 129.603C374.185 127.665 371.698 126.884 370.574 128.462L365.927 134.989C365.425 135.695 364.525 135.996 363.698 135.737L356.055 133.334C354.207 132.753 352.695 134.876 353.848 136.433L358.62 142.869C359.136 143.565 359.145 144.515 358.642 145.22L353.995 151.747C352.871 153.326 354.424 155.42 356.261 154.803L363.857 152.255C364.678 151.979 365.583 152.264 366.099 152.96L370.871 159.396C372.025 160.953 374.496 160.123 374.477 158.186L374.401 150.174C374.392 149.308 374.943 148.535 375.764 148.259L383.36 145.71C385.197 145.094 385.172 142.487 383.324 141.906L375.68 139.503C374.854 139.244 374.289 138.481 374.28 137.615L374.204 129.603Z" fill="white"/>
<path d="M183.523 92.4662C183.436 90.6059 181.077 89.8644 179.941 91.34L173.534 99.6617C173.022 100.326 172.15 100.601 171.349 100.35L160.726 97.01C158.822 96.4115 157.312 98.6641 158.589 100.198L165.115 108.035C165.714 108.755 165.734 109.793 165.163 110.535L159.191 118.291C158.021 119.811 159.454 121.947 161.304 121.44L172.255 118.441C173.011 118.234 173.818 118.488 174.32 119.091L181.585 127.816C182.812 129.29 185.21 128.358 185.12 126.442L184.66 116.664C184.616 115.729 185.227 114.889 186.13 114.641L195.966 111.947C197.891 111.42 197.941 108.709 196.038 108.11L185.414 104.771C184.614 104.519 184.056 103.795 184.016 102.957L183.523 92.4662Z" fill="white"/>
<path d="M103.547 41.4465C102.109 40.1476 99.8492 41.4471 100.249 43.3429L101.901 51.1829C102.08 52.0307 101.692 52.8972 100.941 53.3291L93.9951 57.3231C92.3155 58.2889 92.853 60.8397 94.7795 61.0456L102.746 61.897C103.608 61.989 104.312 62.6254 104.491 63.4732L106.143 71.3133C106.543 73.2091 109.135 73.4861 109.926 71.7175L113.197 64.4037C113.551 63.6128 114.374 63.1396 115.236 63.2317L123.202 64.0831C125.129 64.2889 126.193 61.9094 124.756 60.6104L118.811 55.2388C118.168 54.658 117.972 53.7292 118.326 52.9382L121.598 45.6244C122.389 43.8558 120.455 42.1082 118.775 43.074L111.829 47.0679C111.078 47.4999 110.134 47.399 109.491 46.8181L103.547 41.4465Z" fill="white"/>
<path d="M200.703 30.6245C198.854 31.3929 199.156 34.1001 201.129 34.442L202.228 34.6324C203.104 34.7844 203.775 35.4971 203.874 36.3813L204.034 37.8158C204.243 39.6871 206.686 40.2593 207.704 38.6753L208.776 37.0074C209.211 36.3311 210.008 35.9808 210.8 36.1181L212.548 36.4211C214.48 36.7559 215.69 34.3999 214.292 33.0248L213.64 32.3824C212.965 31.7184 212.848 30.672 213.36 29.8755L213.855 29.105C214.915 27.4557 213.215 25.4244 211.405 26.1768L209.767 26.8576C209.024 27.1661 208.169 27.0002 207.596 26.4364L206.183 25.0458C204.841 23.7252 202.584 24.8219 202.793 26.6932L202.953 28.1278C203.052 29.012 202.554 29.855 201.733 30.1964L200.703 30.6245Z" fill="white"/>
<path d="M31.4568 126.021C29.6079 126.789 29.91 129.496 31.8828 129.838L32.9818 130.028C33.8584 130.18 34.5293 130.893 34.628 131.777L34.7881 133.212C34.9969 135.083 37.4402 135.655 38.4582 134.071L39.5302 132.403C39.9648 131.727 40.7621 131.377 41.5542 131.514L43.3022 131.817C45.234 132.152 46.444 129.796 45.0465 128.421L44.3936 127.778C43.7187 127.114 43.6019 126.068 44.1139 125.272L44.6091 124.501C45.6691 122.852 43.9695 120.82 42.1591 121.573L40.5208 122.254C39.7784 122.562 38.9235 122.396 38.3505 121.832L36.9373 120.442C35.5951 119.121 33.338 120.218 33.5469 122.089L33.707 123.524C33.8056 124.408 33.3084 125.251 32.4868 125.592L31.4568 126.021Z" fill="white"/>
<path d="M257.457 116.021C255.608 116.789 255.91 119.496 257.883 119.838L258.982 120.029C259.858 120.18 260.529 120.893 260.628 121.777L260.788 123.212C260.997 125.083 263.44 125.655 264.458 124.071L265.53 122.403C265.965 121.727 266.762 121.377 267.554 121.514L269.302 121.817C271.234 122.152 272.444 119.796 271.046 118.421L270.394 117.778C269.719 117.114 269.602 116.068 270.114 115.272L270.609 114.501C271.669 112.852 269.97 110.82 268.159 111.573L266.521 112.254C265.778 112.562 264.924 112.396 264.351 111.832L262.937 110.442C261.595 109.121 259.338 110.218 259.547 112.089L259.707 113.524C259.806 114.408 259.308 115.251 258.487 115.592L257.457 116.021Z" fill="white"/>
<path d="M34.4568 67.0205C32.6079 67.7889 32.91 70.4961 34.8828 70.838L35.9818 71.0285C36.8584 71.1804 37.5293 71.8931 37.628 72.7773L37.7881 74.2119C37.9969 76.0832 40.4402 76.6554 41.4582 75.0714L42.5302 73.4035C42.9648 72.7272 43.7621 72.3769 44.5542 72.5142L46.3022 72.8171C48.234 73.1519 49.444 70.796 48.0465 69.4209L47.3936 68.7785C46.7187 68.1144 46.6019 67.0681 47.1139 66.2715L47.6091 65.501C48.6691 63.8517 46.9695 61.8204 45.1591 62.5728L43.5208 63.2537C42.7784 63.5622 41.9235 63.3963 41.3505 62.8324L39.9373 61.4419C38.5951 60.1212 36.338 61.218 36.5469 63.0893L36.707 64.5238C36.8056 65.408 36.3084 66.2511 35.4868 66.5925L34.4568 67.0205Z" fill="white"/>
<path d="M84.1429 2.59663C82.378 3.396 82.6671 5.98674 84.5648 6.37739L92.4124 7.99293C93.2611 8.16764 93.9007 8.86894 93.9968 9.73004L94.8854 17.6928C95.1003 19.6183 97.6536 20.1439 98.6115 18.4599L102.573 11.4956C103.001 10.7424 103.866 10.3508 104.715 10.5255L112.562 12.1411C114.46 12.5317 115.749 10.2658 114.443 8.83436L109.044 2.91463C108.46 2.27447 108.355 1.33113 108.783 0.577995L112.745 -6.38633C113.703 -8.07039 111.946 -9.99641 110.181 -9.19704L102.883 -5.89131C102.093 -5.53382 101.164 -5.72521 100.58 -6.36538L95.1806 -12.2851C93.875 -13.7166 91.5004 -12.641 91.7152 -10.7155L92.6038 -2.75275C92.6999 -1.89164 92.2306 -1.06659 91.4413 -0.709101L84.1429 2.59663Z" fill="white"/>
</svg>
