<svg width="416" height="148" viewBox="0 0 416 148" fill="none" xmlns="http://www.w3.org/2000/svg">
<path d="M396.237 25.0406C397.176 23.3176 399.776 23.8356 399.982 25.7868L400.449 30.1988C400.541 31.0693 401.189 31.7787 402.047 31.9498L406.405 32.818C408.285 33.1926 408.612 35.7423 406.887 36.5789L402.67 38.6245C401.912 38.9923 401.465 39.7962 401.554 40.6345L402.047 45.2902C402.251 47.2249 399.853 48.2834 398.562 46.8283L395.714 43.6192C395.119 42.9491 394.151 42.7563 393.345 43.1473L389.485 45.0198C387.734 45.8688 385.925 43.9721 386.855 42.2636L389.095 38.1523C389.498 37.412 389.394 36.4984 388.834 35.868L385.723 32.3623C384.45 30.9284 385.729 28.6987 387.61 29.0733L391.968 29.9415C392.826 30.1126 393.696 29.7055 394.115 28.9368L396.237 25.0406Z" fill="white"/>
<path d="M115.15 48.5706C116.097 46.8804 118.653 47.3898 118.881 49.3139L119.82 57.2708C119.921 58.1313 120.566 58.8285 121.415 58.9978L129.273 60.5634C131.173 60.9419 131.479 63.5308 129.719 64.3413L122.442 67.6935C121.655 68.056 121.191 68.884 121.292 69.7445L122.232 77.7015C122.459 79.6256 120.091 80.7162 118.776 79.2931L113.339 73.4079C112.751 72.7714 111.821 72.5859 111.034 72.9485L103.756 76.3006C101.997 77.1112 100.228 75.1964 101.175 73.5063L105.092 66.5169C105.516 65.761 105.404 64.8184 104.816 64.1819L99.3795 58.2967C98.0648 56.8736 99.3392 54.5995 101.239 54.9781L109.097 56.5436C109.947 56.7129 110.809 56.3158 111.233 55.56L115.15 48.5706Z" fill="white"/>
<path d="M20.4515 77.9312C20.47 75.9939 22.9569 75.2121 24.0806 76.7904L28.7277 83.3172C29.2303 84.023 30.1302 84.325 30.9567 84.0651L38.6002 81.6623C40.4484 81.0813 41.9604 83.2049 40.8067 84.7613L36.0353 91.1979C35.5193 91.894 35.5102 92.8431 36.0128 93.5489L40.6599 100.076C41.7837 101.654 40.2313 103.748 38.3945 103.132L30.7985 100.583C29.977 100.307 29.0715 100.592 28.5556 101.288L23.7842 107.725C22.6305 109.281 20.1591 108.452 20.1776 106.515L20.2544 98.5028C20.2627 97.6364 19.7121 96.8631 18.8907 96.5875L11.2947 94.0387C9.45789 93.4224 9.48286 90.8157 11.3311 90.2347L18.9746 87.8319C19.8011 87.572 20.3664 86.8095 20.3747 85.9431L20.4515 77.9312Z" fill="white"/>
<path d="M41.123 129.603C41.1416 127.665 43.6284 126.884 44.7522 128.462L49.3993 134.989C49.9019 135.695 50.8017 135.996 51.6283 135.737L59.2717 133.334C61.12 132.753 62.632 134.876 61.4782 136.433L56.7069 142.869C56.1909 143.565 56.1818 144.515 56.6844 145.22L61.3315 151.747C62.4552 153.326 60.9029 155.42 59.0661 154.803L51.4701 152.255C50.6486 151.979 49.7431 152.264 49.2271 152.96L44.4558 159.396C43.302 160.953 40.8306 160.123 40.8492 158.186L40.9259 150.174C40.9342 149.308 40.3837 148.535 39.5623 148.259L31.9663 145.71C30.1295 145.094 30.1544 142.487 32.0027 141.906L39.6461 139.503C40.4727 139.244 41.038 138.481 41.0463 137.615L41.123 129.603Z" fill="white"/>
<path d="M231.803 92.4662C231.891 90.6059 234.25 89.8644 235.386 91.34L241.793 99.6617C242.304 100.326 243.177 100.601 243.977 100.35L254.601 97.01C256.504 96.4115 258.014 98.6641 256.737 100.198L250.212 108.035C249.613 108.755 249.593 109.793 250.164 110.535L256.135 118.291C257.306 119.811 255.872 121.947 254.022 121.44L243.072 118.441C242.316 118.234 241.508 118.488 241.007 119.091L233.742 127.816C232.514 129.29 230.117 128.358 230.207 126.442L230.666 116.664C230.71 115.729 230.1 114.889 229.197 114.641L219.361 111.947C217.436 111.42 217.385 108.709 219.289 108.11L229.912 104.771C230.713 104.519 231.271 103.795 231.31 102.957L231.803 92.4662Z" fill="white"/>
<path d="M311.78 41.4465C313.218 40.1476 315.477 41.4471 315.078 43.3429L313.426 51.1829C313.247 52.0307 313.635 52.8972 314.386 53.3291L321.332 57.3231C323.011 58.2889 322.474 60.8397 320.547 61.0456L312.58 61.897C311.719 61.989 311.014 62.6254 310.836 63.4732L309.184 71.3133C308.784 73.2091 306.192 73.4861 305.401 71.7175L302.129 64.4037C301.775 63.6128 300.953 63.1396 300.091 63.2317L292.124 64.0831C290.198 64.2889 289.133 61.9094 290.571 60.6104L296.516 55.2388C297.159 54.658 297.354 53.7292 297.001 52.9382L293.729 45.6244C292.938 43.8558 294.872 42.1082 296.552 43.074L303.497 47.0679C304.248 47.4999 305.192 47.399 305.835 46.8181L311.78 41.4465Z" fill="white"/>
<path d="M214.624 30.6245C216.473 31.3929 216.171 34.1001 214.198 34.442L213.099 34.6324C212.222 34.7844 211.551 35.4971 211.453 36.3813L211.293 37.8158C211.084 39.6871 208.641 40.2593 207.622 38.6753L206.551 37.0074C206.116 36.3311 205.319 35.9808 204.527 36.1181L202.778 36.4211C200.847 36.7559 199.637 34.3999 201.034 33.0248L201.687 32.3824C202.362 31.7184 202.479 30.672 201.967 29.8755L201.472 29.105C200.412 27.4557 202.111 25.4244 203.922 26.1768L205.56 26.8576C206.302 27.1661 207.157 27.0002 207.73 26.4364L209.143 25.0458C210.486 23.7252 212.743 24.8219 212.534 26.6932L212.374 28.1278C212.275 29.012 212.772 29.855 213.594 30.1964L214.624 30.6245Z" fill="white"/>
<path d="M383.87 126.021C385.719 126.789 385.417 129.496 383.444 129.838L382.345 130.028C381.468 130.18 380.797 130.893 380.699 131.777L380.539 133.212C380.33 135.083 377.886 135.655 376.868 134.071L375.796 132.403C375.362 131.727 374.564 131.377 373.772 131.514L372.024 131.817C370.093 132.152 368.883 129.796 370.28 128.421L370.933 127.778C371.608 127.114 371.725 126.068 371.213 125.272L370.718 124.501C369.658 122.852 371.357 120.82 373.168 121.573L374.806 122.254C375.548 122.562 376.403 122.396 376.976 121.832L378.389 120.442C379.732 119.121 381.989 120.218 381.78 122.089L381.62 123.524C381.521 124.408 382.018 125.251 382.84 125.592L383.87 126.021Z" fill="white"/>
<path d="M157.87 116.021C159.719 116.789 159.417 119.496 157.444 119.838L156.345 120.029C155.468 120.18 154.797 120.893 154.699 121.777L154.539 123.212C154.33 125.083 151.886 125.655 150.868 124.071L149.796 122.403C149.362 121.727 148.564 121.377 147.772 121.514L146.024 121.817C144.093 122.152 142.883 119.796 144.28 118.421L144.933 117.778C145.608 117.114 145.725 116.068 145.213 115.272L144.718 114.501C143.658 112.852 145.357 110.82 147.168 111.573L148.806 112.254C149.548 112.562 150.403 112.396 150.976 111.832L152.389 110.442C153.732 109.121 155.989 110.218 155.78 112.089L155.62 113.524C155.521 114.408 156.018 115.251 156.84 115.592L157.87 116.021Z" fill="white"/>
<path d="M380.87 67.0205C382.719 67.7889 382.417 70.4961 380.444 70.838L379.345 71.0285C378.468 71.1804 377.797 71.8931 377.699 72.7773L377.539 74.2119C377.33 76.0832 374.886 76.6554 373.868 75.0714L372.796 73.4035C372.362 72.7272 371.564 72.3769 370.772 72.5142L369.024 72.8171C367.093 73.1519 365.883 70.796 367.28 69.4209L367.933 68.7785C368.608 68.1144 368.725 67.0681 368.213 66.2715L367.718 65.501C366.658 63.8517 368.357 61.8204 370.168 62.5728L371.806 63.2537C372.548 63.5622 373.403 63.3963 373.976 62.8324L375.389 61.4419C376.732 60.1212 378.989 61.218 378.78 63.0893L378.62 64.5238C378.521 65.408 379.018 66.2511 379.84 66.5925L380.87 67.0205Z" fill="white"/>
<path d="M331.184 2.59663C332.949 3.396 332.659 5.98674 330.762 6.37739L322.914 7.99293C322.066 8.16764 321.426 8.86894 321.33 9.73004L320.441 17.6928C320.226 19.6183 317.673 20.1439 316.715 18.4599L312.754 11.4956C312.325 10.7424 311.461 10.3508 310.612 10.5255L302.764 12.1411C300.867 12.5317 299.578 10.2658 300.883 8.83436L306.283 2.91463C306.866 2.27447 306.972 1.33113 306.543 0.577995L302.582 -6.38633C301.624 -8.07039 303.381 -9.99641 305.145 -9.19704L312.444 -5.89131C313.233 -5.53382 314.163 -5.72521 314.747 -6.36538L320.146 -12.2851C321.452 -13.7166 323.826 -12.641 323.611 -10.7155L322.723 -2.75275C322.627 -1.89164 323.096 -1.06659 323.885 -0.709101L331.184 2.59663Z" fill="white"/>
</svg>
